<svg version="1.2" xmlns="http://www.w3.org/2000/svg" viewBox="0 0 192 288" width="192" height="288">
	<title>board</title>
	<style>
		.s0 { fill: none;stroke: #ff0000;stroke-miterlimit:100 } 
	</style>
	<g id="Folder 1">
		<path id="Shape 1" fill-rule="evenodd" class="s0" d="m18 209v37l38 18v-8l-35-18v-31z"/>
		<path id="Shape 1 copy" fill-rule="evenodd" class="s0" d="m142 209v37l-38 18v-8l35-18v-31z"/>
		<path id="Shape 3" fill-rule="evenodd" class="s0" d="m96 288v-4l46-23v6h14v-69l-20.5-20.5 3.3-16.3 7.2-26.2 5-29v-23l-4-15-12-17-12-12-15-7-18-4h-18l-19 6-13 7 12-12 19-7 21-2 18 4 18 9 15 12 15 21 2.1 7v215z"/>
		<path id="Shape 4" fill-rule="evenodd" class="s0" d="m64 288h-64v-288h192v288h-31.9v-21h13.9v-204l-8-13-14-19-23-16-23-8-25.9-2-19.1 3-16 7-20 16-11 17-5 22-2 25v18l5 26 7.1 20.5 1.7 20-16.8 17.5v70h14v-7l46 23z"/>
		<path id="Shape 5" fill-rule="evenodd" class="s0" d="m38.3 147l-6.5-11-8.8-22v-20l5-15 9-12v18l12 25 13.1 20.5-1.1 0.9-16.1-17.6-14.1 7.4 9.1 25.3z"/>
		<path id="Shape 6" fill-rule="evenodd" class="s0" d="m100 132l14-38 1-24-4-13-6-10 3-1 16 15 10 15 1 33-5.9 22.8-6.8 14.7-1.6-0.6 11.6-37-1.7-33.7-17.7-21.5 5.5 16.3-0.3 26-15.8 37.4z"/>
	</g>
</svg>