<svg version="1.2" xmlns="http://www.w3.org/2000/svg" viewBox="0 0 192 288" width="192" height="288">
	<title>board</title>
	<style>
		.s0 { fill: none;stroke: #ff0000;stroke-miterlimit:100 } 
	</style>
	<g id="svg">
		<path id="return l" fill-rule="evenodd" class="s0" d="m20.9 209.7l-2.9 36.3 38 18v-8l-35-18v-31z"/>
		<path id="return r" fill-rule="evenodd" class="s0" d="m139.7 208.9l2.3 37.1-38 18v-8l35-18v-31z"/>
		<path id="frame 2" fill-rule="evenodd" class="s0" d="m96 288v-4l46-23v6h14v-69l-17.5-20.5 0.3-2.6 8.2-25.9 6-14 3-18-0.1-13.8-1.9-20.2-6-20-11-14-14-10-15-7-18-4h-18l-19 6-13 7 12-12 21.6-8.1 18.4-0.9 18 4 18 9 15 12 11 12 6.1 16v215z"/>
		<path id="frame 1" fill-rule="evenodd" class="s0" d="m64 288h-64v-288h192v288h-31.9v-23h13.9v-202l-5.4-16.1-15.6-17.3-25.1-15.2-23.1-7.9-24.8-2.2-19 3.7-22.5 11-18.5 18.3-0.6-32.8-14.1-0.2-2 95.3 0.8 20.3 2.5 17.6 12.5 37.7 1.7 4.3-16.8 17.5v70h14v-7l46 23z"/>
		<path id="away ramp" fill-rule="evenodd" class="s0" d="m40.7 155.3l-15.5-30.5-0.3-12.4 0.2-4.5 2.9 14.6 10 0.3 0.8-8.4 4.5 3 4.1 2.6 16.9 24.7-1.5 1.1-15.7-22.8-13.4 6.2 8.3 25.9z"/>
		<path id="hyperspace" fill-rule="evenodd" class="s0" d="m130.2 66.3l7.6 10.9 3.3 32-3.4 20.5-11.8 19.9-3.6 4 12.4-24.2 4.3-22.3-3.2-30.9-8-2-0.3 16.1-0.2 1.8-4.8 14.7-6.8 16-13.6 17.8-0.5-0.5 12.5-18.6 5.1-13.6 6.4-19.7 0.6-14.3-7.6-11.5v-10.6z"/>
		<path id="top island" class="s0" d="m50.7 85.1l19.7-20.4 0.1-8-15.5 15.4-4.7-12.8 13.7-5.5 6.2 0.7 0.3-4-4.3-3.7-19.8 7.6-0.2 4.2-0.2 23z"/>
		<path id="Shape 1" class="s0" d="m52 239l-16-32-1 24 3 2 1-15 3 16z"/>
		<path id="Shape 1 copy" class="s0" d="m108 239l16-32 1 24-3 2-1-15-3 16z"/>
	</g>
</svg>