<svg width="192" height="288" viewBox="0 0 192 288" fill="none" xmlns="http://www.w3.org/2000/svg">
  <path id="Shape 1" class="s0" d="m18 209v37l38 18v-8l-35-18v-31z"/>
  <path id="Shape 1 copy" class="s0" d="m142 209v37l-38 18v-8l35-18v-31z"/>
  <path id="Shape 3" class="s0" d="m96 288v-4l46-23v6h14v-69l-20.5-20.5v-16.5l10.5-26 5-29v-23l-4-15-12-17-12-12-15-7-18-4h-18l-19 6-13 7 12-12 19-7 21-2 18 4 18 9 15 12 15 21 2.1 7v215z"/>
  <path id="Shape 4" class="s0" d="m64 288h-64v-288h192v288h-31.9v-21h13.9v-204l-8-13-14-19-23-16-23-8-25.9-2-19.1 3-16 7-20 16-11 17-5 22-2 25v18l5 26 10 20v20l-18 18v70h14v-7l46 23z"/>
  <path id="Shape 5" class="s0" d="m39 154l-9-16-7-24v-20l5-15 9-12v18l12 25 14 20-8 7-10-11-8 5 10 19z"/>
  <path id="Shape 6" class="s0" d="m100 132l14-38 1-24-4-13-6-10 3-1 16 15 10 15 1 33-5 23-7 20-7-5 4-16-8-7-6 12z"/>
</svg>
