<svg version="1.2" xmlns="http://www.w3.org/2000/svg" viewBox="0 0 192 288" width="192" height="288">
	<title>board</title>
	<style>
		.s0 { fill: none;stroke: #ff0000;stroke-miterlimit:100 } 
	</style>
	<g id="svg">
		<path id="return l" fill-rule="evenodd" class="s0" d="m18 209v37l38 18v-8l-35-18v-31z"/>
		<path id="return r" fill-rule="evenodd" class="s0" d="m142 209v37l-38 18v-8l35-18v-31z"/>
		<path id="frame 2" fill-rule="evenodd" class="s0" d="m96 288v-4l46-23v6h14v-69l-17.5-20.5 0.3-16.3 8.2-12.2 6-14 3-18-0.1-13.8-1.9-20.2-6-20-11-14-14-10-15-7-18-4h-18l-19 6-13 7 12-12 19-7 21-2 18 4 18 9 15 12 11 12 6.1 16v215z"/>
		<path id="frame 1" fill-rule="evenodd" class="s0" d="m64 288h-64v-288h192v288h-31.9v-21h13.9v-204l-8-13-14-19-23-16-23-8-25.9-2-19.1 3-22.5 11-18.5 18.3-0.6-32.8-14.1-0.2-2 95.3 0.8 20.3 5.7 17.9 10.3 23.7 0.7 18-16.8 17.5v70h14v-7l46 23z"/>
		<path id="away ramp" fill-rule="evenodd" class="s0" d="m35 155.4l-12.3-30.1-0.7-14.2 0.9-4.5 16.1 4.7-1 1.7 6.4 5.5 17.3 26.5-4.3 1.7-14.3-23.7-13.4 6.2 9.4 25.1z"/>
		<path id="hyperspace" fill-rule="evenodd" class="s0" d="m130.2 66.3l8.1 11.6 2.8 31.3-3.4 20.5-14.2 24.5-4.4-2.9 14.5-22.5 3.6-20.6-2.6-15.8-3.8-1.8-1.8 2.1-2.1 3.1-2.9 11.6-6 16.7-12 18.5-3.2-2.6 11.3-18.5 5.1-13.6 6.4-19.7 0.6-14.3-7.6-11.5v-10.6z"/>
		<path id="top island" class="s0" d="m50.7 85.1l19.7-20.4 0.1-8-15.5 15.4-4.7-12.8 13.7-5.5 6.2 0.7 0.3-4-4.3-3.7-19.8 7.6-0.2 4.2-0.2 23z"/>
		<path id="Shape 1" class="s0" d="m52 239l-16-32-1 24 3 2 1-15 3 16z"/>
		<path id="Shape 1 copy" class="s0" d="m108 239l16-32 1 24-3 2-1-15-3 16z"/>
	</g>
</svg>