<svg version="1.2" xmlns="http://www.w3.org/2000/svg" viewBox="0 0 192 288" width="192" height="288">
	<title>board</title>
	<style>
		.s0 { fill: none;stroke: #ff0000;stroke-miterlimit:100 } 
	</style>
	<g id="svg">
		<path id="return l" fill-rule="evenodd" class="s0" d="m20.9 209.7l-2.9 36.3 38 18v-8l-35-18v-31z"/>
		<path id="return r" fill-rule="evenodd" class="s0" d="m139.7 208.9l2.3 37.1-38 18v-8l35-18v-31z"/>
		<path id="frame 2" fill-rule="evenodd" class="s0" d="m96 288v-4l46-23v6h14v-71.5l-17.5-18-0.2-10.5 8.7-18 6-14 3-18 0.3-14.1-1.9-22.3-7.8-17.7-11-14.6-12.9-9.5-14.7-6.8-18-4h-18l-19 6-13 7 12-12 21.6-8.1 15.4-3.7 19.4 3.2 17.5 8.4 17 14.7 12.2 23.4 4.8 26 0.2 195.1z"/>
		<path id="frame 1" fill-rule="evenodd" class="s0" d="m64 288h-64v-288h192v288h-31.9v-23h13.9l0.2-188.3-6.1-22.2-15.9-23.6-17.9-15.9-29.7-11.4-24.6-0.2-19 4.6-22.5 11-18.9 20.6-0.2-35.1-14.1-0.2-2 95.3 0.8 20.3 2.9 12.7 12.6 35.9 1.2 11-16.8 17.5v70h14v-7l46 23z"/>
		<path id="away ramp" fill-rule="evenodd" class="s0" d="m39.7 155.3l-14.5-30.5-0.3-12.4v-5.4l1.6 15.9 12.8-0.8 0.7-12.2 3.6 6.8 3.8 3.3 16.9 24.7-2.9 1.6-16.2-22.7-12.7 6.3 9.2 24.4z"/>
		<path id="hyperspace" fill-rule="evenodd" class="s0" d="m127.7 60.8l10.1 16.4 3.6 28.6-3.7 23.9-6.5 14.3-8.3 10.3 11.8-24.9 3.3-21.1-2.8-31.6-9.3-3 1 11.3-1 7-2.3 14.3-7.3 17.9-8.4 7.7-8.1 3.4 13.5-11.8 6.8-15.5 2.2-15.2 0.4-18.9-2.3-11-2.4-7.8z"/>
		<path id="top island" class="s0" d="m50.7 85.1l19.7-20.4 0.1-8-15.5 15.4-4.7-12.8 13.7-5.5 6.2 0.7 0.3-4-4.3-3.7-19.8 7.6-0.2 4.2-0.2 23z"/>
		<path id="Shape 1" class="s0" d="m52 239l-16-32-1 24 3 2 1-15 3 16z"/>
		<path id="Shape 1 copy" class="s0" d="m108 239l16-32 1 24-3 2-1-15-3 16z"/>
	</g>
</svg>