<svg width="191" height="273" viewBox="0 0 191 273" fill="none" xmlns="http://www.w3.org/2000/svg">
<path d="M11 140.5L21 166V183L2.48533 196.5V208.5V267.864H18.6267V260.159L38.936 273H-1V-1H191V273H172.909H158.5V265H175V71L168 55L156 35.5L136 19L106 6L81.7733 3.96512L55 7.5L28 25.5L15.5547 39.577L5.48533 63.033V100.871L7 121L11 140.5Z" stroke="black"/>
<path d="M42 145L35.5 151.5L25.5 128L22.5 116.75L21.5 105.5L23 93L26 78.5L25.3488 93V105.5L27.5 116.5L31 125L42 145Z" stroke="black"/>
<path d="M116 143.547L121.156 150L130 126L133.814 103V81L130 68.5L121.156 57L111.5 49L101 44.5L89 42L77 43L62.5 48.5L51.5 57.5L41.5 81L43.5 111L50.5 125L56.5 128L64.5 121.5L62.5 112L49.5 98.5L44.5 81L54.5 65L83.5 53.5L98 55.5L106.5 65L108.5 79.5L102.5 115L106.5 119.5L113 105.158L115 90.5L114.75 77.875L122.5 76.25L129.25 77.625L130 90L128.878 109.092L126 123.5L116 143.547Z" stroke="black"/>
<path d="M136.951 260.196L116.154 273H158.6V75.5685L144 46.5L125.53 31.6922L100.131 22.1316L82.0616 19.4L60.0717 24.5L37.4 40.3748L60.0717 29.4728L82.0616 26.0826L100 28.5L121.5 36.5L136.951 51.3256L150.5 75.5685V100.5L145.5 133L135 161.5V182L153.293 195V208.905V267.878H136.951V260.196Z" stroke="black"/>
<path d="M20.6885 203.6L18.2 205.6V236.417L23.8406 242.307L49.389 258.8L54.2 251.395L23.8406 231.368L20.6885 224.973V203.6Z" stroke="black"/>
<path d="M135.712 203.6L138.2 205.5V236.417L132.559 242.307L107.011 258.8L102.2 251.395L132.559 231.368L135.712 224.973V203.6Z" stroke="black"/>
</svg>
